<svg version="1" xmlns="http://www.w3.org/2000/svg" width="533.333" height="533.333" viewBox="0 0 400.000000 400.000000"><path d="M0 200v200h400V0H0v200zm86.7-31.5c9.5 10.4 17.1 19.5 17 20.1-.1.6-5.8 5.6-12.7 11.1-6.9 5.5-13.6 11.2-14.9 12.7-1.4 1.4-2.9 2.6-3.5 2.5-.6 0-5.1-4.7-10.1-10.3-4.9-5.6-16.2-18.3-25.1-28.2-8.8-9.8-16.3-18.4-16.7-19.1-.4-.7-.1-2.8.7-4.8l1.5-3.5 23.3.2 23.2.3 17.3 19zm84 94.2c17 19.2 32.4 36.5 34.2 38.5 2.7 3.1 3.2 4.3 2.6 6.8l-.7 3H182c-13.7 0-25-.4-25.2-.9-.1-.5-3.7-4.6-7.9-9.2C129 279 113 260.7 113 259.8c0-.9 6-8.4 21.2-26.5 2.3-2.8 4.6-5.2 4.9-5.2.3-.1 14.5 15.5 31.6 34.6z"/></svg>